<svg width="1710" height="946" viewBox="0 0 1710 946" fill="none" xmlns="http://www.w3.org/2000/svg">
<g id="Frame 2147213763">
<rect width="1710" height="946" fill="#F0F0F0"/>
<g id="company">
<g clip-path="url(#clip0_2017_208)">
<rect x="96" y="86" width="250" height="201" rx="16" fill="#202020"/>
<g id="Frame 2147213769">
<g id="component">
<g id="Vector">
<path d="M210.167 124.167L216 130.001L210.167 135.834L204.333 130.001L210.167 124.167Z" stroke="white" stroke-width="3" stroke-linecap="round" stroke-linejoin="round"/>
<path d="M221 113.334L226.833 119.167L221 125.001L215.167 119.167L221 113.334Z" stroke="white" stroke-width="3" stroke-linecap="round" stroke-linejoin="round"/>
<path d="M231.833 124.167L237.667 130.001L231.833 135.834L226 130.001L231.833 124.167Z" stroke="white" stroke-width="3" stroke-linecap="round" stroke-linejoin="round"/>
<path d="M221 135.001L226.833 140.834L221 146.667L215.167 140.834L221 135.001Z" stroke="white" stroke-width="3" stroke-linecap="round" stroke-linejoin="round"/>
</g>
</g>
<text id="Company" fill="white" xml:space="preserve" style="white-space: pre" font-family="Geist" font-size="25" font-weight="500" letter-spacing="-0.01em"><tspan x="166" y="187.375">Company</tspan></text>
</g>
<g id="Frame 2147213767">
<g id="Frame 2147213766">
<g id="company_2">
<rect x="108" y="219" width="109" height="56" rx="10" fill="black"/>
<g id="wallet-cards">
<path id="Vector_2" d="M150.5 243C150.5 242.293 150.781 241.614 151.281 241.114C151.781 240.614 152.459 240.333 153.167 240.333H171.833C172.541 240.333 173.219 240.614 173.719 241.114C174.219 241.614 174.5 242.293 174.5 243M150.5 245.667H154.5C155.567 245.667 156.633 246.067 157.3 246.867L158.767 248.067C160.9 250.2 164.233 250.2 166.367 248.067L167.833 246.867C168.5 246.2 169.567 245.667 170.633 245.667H174.5M153.167 235H171.833C173.306 235 174.5 236.194 174.5 237.667V256.333C174.5 257.806 173.306 259 171.833 259H153.167C151.694 259 150.5 257.806 150.5 256.333V237.667C150.5 236.194 151.694 235 153.167 235Z" stroke="white" stroke-width="2" stroke-linecap="round" stroke-linejoin="round"/>
</g>
</g>
<g id="company_3">
<rect x="225" y="219" width="109" height="56" rx="10" fill="black"/>
<g id="dollar-sign">
<path id="Vector_3" d="M279.5 233.666V260.333M286.167 237.666H276.167C274.929 237.666 273.742 238.158 272.867 239.033C271.992 239.908 271.5 241.095 271.5 242.333C271.5 243.57 271.992 244.757 272.867 245.633C273.742 246.508 274.929 246.999 276.167 246.999H282.833C284.071 246.999 285.258 247.491 286.133 248.366C287.008 249.241 287.5 250.428 287.5 251.666C287.5 252.904 287.008 254.091 286.133 254.966C285.258 255.841 284.071 256.333 282.833 256.333H271.5" stroke="white" stroke-width="2" stroke-linecap="round" stroke-linejoin="round"/>
</g>
</g>
</g>
</g>
</g>
</g>
<g id="reserves">
<g clip-path="url(#clip1_2017_208)">
<path d="M1330 102C1330 93.1634 1337.16 86 1346 86H1564C1572.84 86 1580 93.1634 1580 102V271C1580 279.837 1572.84 287 1564 287H1346C1337.16 287 1330 279.837 1330 271V102Z" fill="#FCFCFC"/>
<g id="Frame 2147213771">
<g id="vault">
<path id="Vector_4" d="M1448.17 123.167L1452.67 127.667M1457.33 127.667L1461.83 123.167M1448.17 136.833L1452.67 132.333M1457.33 132.333L1461.83 136.833M1443.33 115H1466.67C1468.51 115 1470 116.492 1470 118.333V141.667C1470 143.508 1468.51 145 1466.67 145H1443.33C1441.49 145 1440 143.508 1440 141.667V118.333C1440 116.492 1441.49 115 1443.33 115ZM1448.33 122.5C1448.33 122.96 1447.96 123.333 1447.5 123.333C1447.04 123.333 1446.67 122.96 1446.67 122.5C1446.67 122.04 1447.04 121.667 1447.5 121.667C1447.96 121.667 1448.33 122.04 1448.33 122.5ZM1463.33 122.5C1463.33 122.96 1462.96 123.333 1462.5 123.333C1462.04 123.333 1461.67 122.96 1461.67 122.5C1461.67 122.04 1462.04 121.667 1462.5 121.667C1462.96 121.667 1463.33 122.04 1463.33 122.5ZM1448.33 137.5C1448.33 137.96 1447.96 138.333 1447.5 138.333C1447.04 138.333 1446.67 137.96 1446.67 137.5C1446.67 137.04 1447.04 136.667 1447.5 136.667C1447.96 136.667 1448.33 137.04 1448.33 137.5ZM1463.33 137.5C1463.33 137.96 1462.96 138.333 1462.5 138.333C1462.04 138.333 1461.67 137.96 1461.67 137.5C1461.67 137.04 1462.04 136.667 1462.5 136.667C1462.96 136.667 1463.33 137.04 1463.33 137.5ZM1458.33 130C1458.33 131.841 1456.84 133.333 1455 133.333C1453.16 133.333 1451.67 131.841 1451.67 130C1451.67 128.159 1453.16 126.667 1455 126.667C1456.84 126.667 1458.33 128.159 1458.33 130Z" stroke="#202020" stroke-width="3" stroke-linecap="round" stroke-linejoin="round"/>
</g>
<text id="Reserves" fill="#202020" xml:space="preserve" style="white-space: pre" font-family="Geist" font-size="25" font-weight="500" letter-spacing="-0.01em"><tspan x="1401.66" y="187.375">Reserves</tspan></text>
</g>
<g id="Frame 2147213767_2">
<g id="Frame 2147213766_2">
<g id="company_4">
<rect x="1342.75" y="219.75" width="107.5" height="54.5" rx="9.25" fill="#F0F0F0"/>
<rect x="1342.75" y="219.75" width="107.5" height="54.5" rx="9.25" stroke="#E8E8E8" stroke-width="1.5"/>
<g id="banknote">
<path id="Vector_5" d="M1388.5 247H1388.51M1404.5 247H1404.51M1385.83 239H1407.17C1408.64 239 1409.83 240.194 1409.83 241.667V252.333C1409.83 253.806 1408.64 255 1407.17 255H1385.83C1384.36 255 1383.17 253.806 1383.17 252.333V241.667C1383.17 240.194 1384.36 239 1385.83 239ZM1399.17 247C1399.17 248.473 1397.97 249.667 1396.5 249.667C1395.03 249.667 1393.83 248.473 1393.83 247C1393.83 245.527 1395.03 244.333 1396.5 244.333C1397.97 244.333 1399.17 245.527 1399.17 247Z" stroke="#202020" stroke-width="2" stroke-linecap="round" stroke-linejoin="round"/>
</g>
</g>
<g id="company_5">
<rect x="1459.75" y="219.75" width="107.5" height="54.5" rx="9.25" fill="#F0F0F0"/>
<rect x="1459.75" y="219.75" width="107.5" height="54.5" rx="9.25" stroke="#E8E8E8" stroke-width="1.5"/>
<g id="chart-area">
<path id="Vector_6" d="M1501.5 235V256.333C1501.5 257.041 1501.78 257.719 1502.28 258.219C1502.78 258.719 1503.46 259 1504.17 259H1525.5M1506.83 245.943C1506.83 245.766 1506.9 245.597 1507.03 245.472L1509.69 242.805C1509.76 242.743 1509.83 242.694 1509.91 242.66C1509.99 242.627 1510.08 242.609 1510.17 242.609C1510.25 242.609 1510.34 242.627 1510.42 242.66C1510.5 242.694 1510.58 242.743 1510.64 242.805L1515.03 247.195C1515.09 247.257 1515.16 247.306 1515.24 247.34C1515.33 247.373 1515.41 247.391 1515.5 247.391C1515.59 247.391 1515.67 247.373 1515.76 247.34C1515.84 247.306 1515.91 247.257 1515.97 247.195L1521.69 241.472C1521.79 241.379 1521.91 241.315 1522.04 241.289C1522.17 241.263 1522.3 241.276 1522.42 241.327C1522.54 241.377 1522.65 241.463 1522.72 241.572C1522.79 241.682 1522.83 241.811 1522.83 241.943V252.333C1522.83 252.687 1522.69 253.026 1522.44 253.276C1522.19 253.526 1521.85 253.667 1521.5 253.667H1508.17C1507.81 253.667 1507.47 253.526 1507.22 253.276C1506.97 253.026 1506.83 252.687 1506.83 252.333V245.943Z" stroke="#202020" stroke-width="2" stroke-linecap="round" stroke-linejoin="round"/>
</g>
</g>
</g>
</g>
</g>
<path d="M1346 87H1564C1572.28 87 1579 93.7157 1579 102V271C1579 279.284 1572.28 286 1564 286H1346C1337.72 286 1331 279.284 1331 271V102C1331 93.7157 1337.72 87 1346 87Z" stroke="#E8E8E8" stroke-width="2"/>
</g>
<g id="issuer">
<g clip-path="url(#clip2_2017_208)">
<path d="M680 102C680 93.1634 687.163 86 696 86H914C922.837 86 930 93.1634 930 102V271C930 279.837 922.837 287 914 287H696C687.163 287 680 279.837 680 271V102Z" fill="#FCFCFC"/>
<g id="Frame 2147213770">
<g id="circle-dollar-sign">
<path id="Vector_7" d="M811.667 123.334H801.667C800.783 123.334 799.935 123.685 799.31 124.31C798.685 124.935 798.333 125.783 798.333 126.667C798.333 127.551 798.685 128.399 799.31 129.024C799.935 129.649 800.783 130.001 801.667 130.001H808.333C809.217 130.001 810.065 130.352 810.69 130.977C811.316 131.602 811.667 132.45 811.667 133.334C811.667 134.218 811.316 135.066 810.69 135.691C810.065 136.316 809.217 136.667 808.333 136.667H798.333M805 140.001V120.001M821.667 130.001C821.667 139.205 814.205 146.667 805 146.667C795.795 146.667 788.333 139.205 788.333 130.001C788.333 120.796 795.795 113.334 805 113.334C814.205 113.334 821.667 120.796 821.667 130.001Z" stroke="#202020" stroke-width="3" stroke-linecap="round" stroke-linejoin="round"/>
</g>
<text id="Stablecoin issuer" fill="#202020" xml:space="preserve" style="white-space: pre" font-family="Geist" font-size="25" font-weight="500" letter-spacing="-0.01em"><tspan x="705.645" y="187.375">Stablecoin issuer</tspan></text>
</g>
<g id="Frame 2147213767_3">
<g id="Frame 2147213766_3">
<g id="company_6">
<path d="M702 219.75H791C796.109 219.75 800.25 223.891 800.25 229V265C800.25 270.109 796.109 274.25 791 274.25H702C696.891 274.25 692.75 270.109 692.75 265V229C692.75 223.891 696.891 219.75 702 219.75Z" fill="#F9F9F9"/>
<path d="M702 219.75H791C796.109 219.75 800.25 223.891 800.25 229V265C800.25 270.109 796.109 274.25 791 274.25H702C696.891 274.25 692.75 270.109 692.75 265V229C692.75 223.891 696.891 219.75 702 219.75Z" stroke="#E8E8E8" stroke-width="1.5"/>
<g id="dollar-sign_2">
<path id="Vector_8" d="M746.5 233.666V260.333M753.167 237.666H743.167C741.929 237.666 740.742 238.158 739.867 239.033C738.992 239.908 738.5 241.095 738.5 242.333C738.5 243.57 738.992 244.757 739.867 245.633C740.742 246.508 741.929 246.999 743.167 246.999H749.833C751.071 246.999 752.258 247.491 753.133 248.366C754.008 249.241 754.5 250.428 754.5 251.666C754.5 252.904 754.008 254.091 753.133 254.966C752.258 255.841 751.071 256.333 749.833 256.333H738.5" stroke="#202020" stroke-width="2" stroke-linecap="round" stroke-linejoin="round"/>
</g>
</g>
<g id="company_7">
<rect x="809" y="219" width="109" height="56" rx="10" fill="#E2A336"/>
<g id="key-square">
<path id="Vector_9" d="M866.167 240.334L870.167 244.334M860.033 245.134L850.948 254.219C850.448 254.719 850.167 255.397 850.167 256.104V259C850.167 259.354 850.307 259.693 850.557 259.943C850.807 260.193 851.146 260.334 851.5 260.334H855.5C855.854 260.334 856.193 260.193 856.443 259.943C856.693 259.693 856.833 259.354 856.833 259V257.667C856.833 257.313 856.974 256.974 857.224 256.724C857.474 256.474 857.813 256.334 858.167 256.334H859.5C859.854 256.334 860.193 256.193 860.443 255.943C860.693 255.693 860.833 255.354 860.833 255V253.667C860.833 253.313 860.974 252.974 861.224 252.724C861.474 252.474 861.813 252.334 862.167 252.334H862.396C863.103 252.333 863.781 252.052 864.281 251.552L865.367 250.467M864.033 234.6C864.65 234.029 865.459 233.711 866.3 233.711C867.141 233.711 867.95 234.029 868.567 234.6L875.9 241.934C876.472 242.55 876.789 243.36 876.789 244.2C876.789 245.041 876.472 245.851 875.9 246.467L870.967 251.4C870.35 251.972 869.541 252.29 868.7 252.29C867.859 252.29 867.05 251.972 866.433 251.4L859.1 244.067C858.528 243.451 858.211 242.641 858.211 241.8C858.211 240.96 858.528 240.15 859.1 239.534L864.033 234.6Z" stroke="white" stroke-width="2" stroke-linecap="round" stroke-linejoin="round"/>
</g>
</g>
</g>
</g>
</g>
<path d="M696 87H914C922.284 87 929 93.7157 929 102V271C929 279.284 922.284 286 914 286H696C687.716 286 681 279.284 681 271V102C681 93.7157 687.716 87 696 87Z" stroke="#E8E8E8" stroke-width="2"/>
</g>
<g id="contract">
<g clip-path="url(#clip3_2017_208)">
<path d="M682 472C682 463.163 689.163 456 698 456H916C924.837 456 932 463.163 932 472V719C932 727.837 924.837 735 916 735H698C689.163 735 682 727.837 682 719V472Z" fill="#FCFCFC"/>
<g id="Frame 2147213764">
<g id="file-diff">
<path id="Vector_10" d="M802 496.667H812M807 501.667V491.667M802 508.334H812M812 483.334H797C796.116 483.334 795.268 483.685 794.643 484.31C794.018 484.935 793.667 485.783 793.667 486.667V513.334C793.667 514.218 794.018 515.066 794.643 515.691C795.268 516.316 796.116 516.667 797 516.667H817C817.884 516.667 818.732 516.316 819.357 515.691C819.982 515.066 820.333 514.218 820.333 513.334V491.667L812 483.334Z" stroke="#202020" stroke-width="3" stroke-linecap="round" stroke-linejoin="round"/>
</g>
<g id="Frame 2147213768">
<text id="Smart contract" fill="#202020" xml:space="preserve" style="white-space: pre" font-family="Geist" font-size="25" font-weight="500" letter-spacing="-0.01em"><tspan x="720.478" y="557.375">Smart contract</tspan></text>
<text id="for issuance" fill="#8D8D8D" xml:space="preserve" style="white-space: pre" font-family="Geist" font-size="20" font-weight="500" letter-spacing="-0.01em"><tspan x="750.61" y="587.1">for issuance</tspan></text>
</g>
</g>
<g id="Frame 2147213765">
<g id="reserves_2">
<rect x="694" y="617" width="226" height="50" rx="10" fill="#FCD8DA"/>
<g id="flame">
<path id="Vector_11" d="M714.5 644.5C715.163 644.5 715.799 644.237 716.268 643.768C716.737 643.299 717 642.663 717 642C717 640.62 716.5 640 716 639C714.928 636.857 715.776 634.946 718 633C718.5 635.5 720 637.9 722 639.5C724 641.1 725 643 725 645C725 645.919 724.819 646.83 724.467 647.679C724.115 648.528 723.6 649.3 722.95 649.95C722.3 650.6 721.528 651.115 720.679 651.467C719.83 651.819 718.919 652 718 652C717.081 652 716.17 651.819 715.321 651.467C714.472 651.115 713.7 650.6 713.05 649.95C712.4 649.3 711.885 648.528 711.533 647.679C711.181 646.83 711 645.919 711 645C711 643.847 711.433 642.706 712 642C712 642.663 712.263 643.299 712.732 643.768C713.201 644.237 713.837 644.5 714.5 644.5Z" stroke="#E5484D" stroke-width="2" stroke-linecap="round" stroke-linejoin="round"/>
</g>
<text id="burn()" fill="#E5484D" xml:space="preserve" style="white-space: pre" font-family="Geist Mono" font-size="20" letter-spacing="-0.01em"><tspan x="837.023" y="649.1">burn()</tspan></text>
</g>
<g id="reserves_3">
<rect x="694" y="673" width="226" height="50" rx="10" fill="#E3F3E8"/>
<g id="flame_2">
<path id="Vector_12" d="M714.5 700.5C715.163 700.5 715.799 700.237 716.268 699.768C716.737 699.299 717 698.663 717 698C717 696.62 716.5 696 716 695C714.928 692.857 715.776 690.946 718 689C718.5 691.5 720 693.9 722 695.5C724 697.1 725 699 725 701C725 701.919 724.819 702.83 724.467 703.679C724.115 704.528 723.6 705.3 722.95 705.95C722.3 706.6 721.528 707.115 720.679 707.467C719.83 707.819 718.919 708 718 708C717.081 708 716.17 707.819 715.321 707.467C714.472 707.115 713.7 706.6 713.05 705.95C712.4 705.3 711.885 704.528 711.533 703.679C711.181 702.83 711 701.919 711 701C711 699.847 711.433 698.706 712 698C712 698.663 712.263 699.299 712.732 699.768C713.201 700.237 713.837 700.5 714.5 700.5Z" stroke="#30A46C" stroke-width="2" stroke-linecap="round" stroke-linejoin="round"/>
</g>
<text id="mint()" fill="#30A46C" xml:space="preserve" style="white-space: pre" font-family="Geist Mono" font-size="20" letter-spacing="-0.01em"><tspan x="837.023" y="705.1">mint()</tspan></text>
</g>
</g>
</g>
<path d="M698 457H916C924.284 457 931 463.716 931 472V719C931 727.284 924.284 734 916 734H698C689.716 734 683 727.284 683 719V472C683 463.716 689.716 457 698 457Z" stroke="#E8E8E8" stroke-width="2"/>
</g>
<g id="1a">
<path id="arr" d="M676.237 249.237C676.921 248.554 676.921 247.446 676.237 246.763L665.1 235.626C664.417 234.942 663.309 234.942 662.626 235.626C661.942 236.309 661.942 237.417 662.626 238.101L672.525 248L662.626 257.9C661.942 258.583 661.942 259.691 662.626 260.374C663.309 261.058 664.417 261.058 665.1 260.374L676.237 249.237ZM334 248L334 249.75L675 249.75L675 248L675 246.25L334 246.25L334 248Z" fill="#30A46C"/>
<g id="num">
<rect x="476.5" y="221.5" width="50" height="50" rx="25" fill="#E3F3E8"/>
<rect x="476.5" y="221.5" width="50" height="50" rx="25" stroke="#30A46C"/>
<text id="1A" fill="#30A46C" xml:space="preserve" style="white-space: pre" font-family="Geist Mono" font-size="24" letter-spacing="-0.01em"><tspan x="487.229" y="255.02">1A</tspan></text>
</g>
<text id="text" fill="#202020" xml:space="preserve" style="white-space: pre" font-family="Geist" font-size="26" letter-spacing="-0.01em"><tspan x="381.864" y="317.23">Company sends USD </tspan><tspan x="406.354" y="351.23">to the stablecoin </tspan><tspan x="425.27" y="385.23">issuer&#x2019;s bank.</tspan></text>
</g>
<g id="4a">
<path id="arr-4a" d="M168.763 294.763C169.446 294.079 170.554 294.079 171.237 294.763L182.374 305.9C183.058 306.583 183.058 307.691 182.374 308.374C181.691 309.058 180.583 309.058 179.899 308.374L170 298.475L160.1 308.374C159.417 309.058 158.309 309.058 157.626 308.374C156.942 307.691 156.942 306.583 157.626 305.9L168.763 294.763ZM170 685L168.25 685V685L170 685ZM180 695L180 696.75L180 695ZM170 685L168.25 685L168.25 296L170 296L171.75 296L171.75 685L170 685ZM180 695L180 693.25L461 693.25L461 695L461 696.75L180 696.75L180 695ZM170 685L171.75 685C171.75 689.556 175.444 693.25 180 693.25L180 695L180 696.75C173.511 696.75 168.25 691.489 168.25 685L170 685Z" fill="#30A46C"/>
<!-- Invisible trajectory path for animation (stroke, not fill) -->
<path id="path-1b" d="M461 695 L180 695 Q170 695 170 685 L170 296" stroke="none" fill="none"/>
<g id="move-1b">
<rect x="440" y="674" width="42" height="42" rx="21" fill="#30A46C"/>
<g id="coins">
<path id="Vector_13" d="M467.597 693.234C468.622 693.615 469.533 694.249 470.247 695.076C470.961 695.904 471.455 696.898 471.684 697.967C471.912 699.036 471.867 700.145 471.553 701.192C471.239 702.238 470.666 703.189 469.887 703.956C469.108 704.723 468.149 705.281 467.097 705.578C466.045 705.876 464.936 705.904 463.87 705.659C462.805 705.414 461.819 704.904 461.003 704.177C460.187 703.45 459.567 702.529 459.202 701.499M455.583 688.499H456.667V692.833M466.102 697.036L466.861 697.805L463.806 700.86M463.167 690.666C463.167 694.256 460.256 697.166 456.667 697.166C453.077 697.166 450.167 694.256 450.167 690.666C450.167 687.076 453.077 684.166 456.667 684.166C460.256 684.166 463.167 687.076 463.167 690.666Z" stroke="white" stroke-width="2" stroke-linecap="round" stroke-linejoin="round"/>
</g>
</g>
<g id="num_2">
<rect x="236.5" y="668.5" width="50" height="50" rx="25" fill="#E3F3E8"/>
<rect x="236.5" y="668.5" width="50" height="50" rx="25" stroke="#30A46C"/>
<text id="4A" fill="#30A46C" xml:space="preserve" style="white-space: pre" font-family="Geist Mono" font-size="24" letter-spacing="-0.01em"><tspan x="247.229" y="702.02">4A</tspan></text>
</g>
<text id="text_2" fill="#202020" xml:space="preserve" style="white-space: pre" font-family="Geist" font-size="26" letter-spacing="-0.01em"><tspan x="144.215" y="764.23">Issuer sends minted </tspan><tspan x="156.819" y="798.23">stablecoins to the </tspan><tspan x="157.396" y="832.23">company&#x2019;s wallet.</tspan></text>
</g>
<g id="3a">
<path id="path-1a" d="M814.869 727L814.869 780.5C814.869 786.023 810.392 790.5 804.869 790.5L591.874 790.5C586.351 790.5 581.874 786.023 581.874 780.5L581.874 705C581.874 699.477 577.396 695 571.874 695L461 695" stroke="#30A46C" stroke-width="3.5"/>
<g id="move-1a">
<rect x="794" y="722" width="42" height="42" rx="21" fill="#30A46C"/>
<g id="coins_2">
<path id="Vector_14" d="M821.597 741.234C822.622 741.615 823.533 742.249 824.247 743.076C824.961 743.904 825.455 744.898 825.684 745.967C825.912 747.036 825.867 748.145 825.553 749.192C825.239 750.238 824.666 751.189 823.887 751.956C823.108 752.723 822.149 753.281 821.097 753.578C820.045 753.876 818.936 753.904 817.87 753.659C816.805 753.414 815.819 752.904 815.003 752.177C814.187 751.45 813.567 750.529 813.202 749.499M809.583 736.499H810.667V740.833M820.102 745.036L820.861 745.805L817.806 748.86M817.167 738.666C817.167 742.256 814.256 745.166 810.667 745.166C807.077 745.166 804.167 742.256 804.167 738.666C804.167 735.076 807.077 732.166 810.667 732.166C814.256 732.166 817.167 735.076 817.167 738.666Z" stroke="white" stroke-width="2" stroke-linecap="round" stroke-linejoin="round"/>
</g>
</g>
<g id="num_3">
<rect x="675" y="765.5" width="50" height="50" rx="25" fill="#E3F3E8"/>
<rect x="675" y="765.5" width="50" height="50" rx="25" stroke="#30A46C"/>
<text id="3A" fill="#30A46C" xml:space="preserve" style="white-space: pre" font-family="Geist Mono" font-size="24" letter-spacing="-0.01em"><tspan x="685.729" y="799.02">3A</tspan></text>
</g>
<text id="text_3" fill="#202020" xml:space="preserve" style="white-space: pre" font-family="Geist" font-size="26" letter-spacing="-0.01em"><tspan x="544.522" y="858.23">issuer &#x201c;mints&#x201d; stablecoins</tspan></text>
</g>
<g id="2a">
<path id="arr_2" d="M1323.85 250.066C1324.54 249.386 1324.55 248.278 1323.87 247.591L1312.83 236.4C1312.16 235.713 1311.05 235.707 1310.36 236.387C1309.67 237.067 1309.66 238.175 1310.34 238.862L1320.14 248.81L1310.16 258.66C1309.47 259.34 1309.46 260.448 1310.13 261.135C1310.81 261.822 1311.92 261.827 1312.61 261.147L1323.85 250.066ZM758.284 314.767L758.302 313.017L758.284 314.767ZM946.671 305.817L948.421 305.809L946.671 305.817ZM936.568 315.862L936.55 317.612L936.568 315.862ZM956.739 247.011L956.755 245.261L956.739 247.011ZM956.739 247.011L956.723 248.761L1322.6 250.572L1322.62 248.823L1322.64 247.073L956.755 245.261L956.739 247.011ZM946.648 257.056L944.898 257.065L944.921 305.825L946.671 305.817L948.421 305.809L948.398 257.048L946.648 257.056ZM936.568 315.862L936.586 314.112L758.302 313.017L758.284 314.767L758.266 316.517L936.55 317.612L936.568 315.862ZM748.387 304.827L750.137 304.817L750.083 276.166L748.333 276.177L746.583 276.187L746.637 304.838L748.387 304.827ZM758.284 314.767L758.302 313.017C753.785 312.989 750.146 309.334 750.137 304.817L748.387 304.827L746.637 304.838C746.649 311.271 751.833 316.477 758.266 316.517L758.284 314.767ZM946.671 305.817L944.921 305.825C944.923 310.415 941.176 314.14 936.586 314.112L936.568 315.862L936.55 317.612C943.088 317.652 948.424 312.347 948.421 305.809L946.671 305.817ZM956.739 247.011L956.755 245.261C950.222 245.229 944.895 250.532 944.898 257.065L946.648 257.056L948.398 257.048C948.396 252.461 952.136 248.738 956.723 248.761L956.739 247.011Z" fill="#30A46C"/>
<g id="num_4">
<rect x="1098.33" y="221.5" width="50" height="50" rx="25" fill="#E3F3E8"/>
<rect x="1098.33" y="221.5" width="50" height="50" rx="25" stroke="#30A46C"/>
<text id="2A" fill="#30A46C" xml:space="preserve" style="white-space: pre" font-family="Geist Mono" font-size="24" letter-spacing="-0.01em"><tspan x="1109.06" y="255.02">2A</tspan></text>
</g>
<text id="text_4" fill="#202020" xml:space="preserve" style="white-space: pre" font-family="Geist" font-size="26" letter-spacing="-0.01em"><tspan x="992.51" y="317.23">Issuer deposits USD in&#10;</tspan><tspan x="980.164" y="351.23">bank, or buys short-term&#10;</tspan><tspan x="992.104" y="385.23">government securities.</tspan></text>
</g>
<path id="2.5a-draw" d="M862.5 276V454" stroke="#E2A336" stroke-width="4" stroke-dasharray="8 8"/>
</g>
<defs>
<clipPath id="clip0_2017_208">
<rect x="96" y="86" width="250" height="201" rx="16" fill="white"/>
</clipPath>
<clipPath id="clip1_2017_208">
<path d="M1330 102C1330 93.1634 1337.16 86 1346 86H1564C1572.84 86 1580 93.1634 1580 102V271C1580 279.837 1572.84 287 1564 287H1346C1337.16 287 1330 279.837 1330 271V102Z" fill="white"/>
</clipPath>
<clipPath id="clip2_2017_208">
<path d="M680 102C680 93.1634 687.163 86 696 86H914C922.837 86 930 93.1634 930 102V271C930 279.837 922.837 287 914 287H696C687.163 287 680 279.837 680 271V102Z" fill="white"/>
</clipPath>
<clipPath id="clip3_2017_208">
<path d="M682 472C682 463.163 689.163 456 698 456H916C924.837 456 932 463.163 932 472V719C932 727.837 924.837 735 916 735H698C689.163 735 682 727.837 682 719V472Z" fill="white"/>
</clipPath>
</defs>
</svg>
