<svg width="208" height="46" viewBox="0 0 208 46" fill="none" xmlns="http://www.w3.org/2000/svg">
<path d="M15.4218 45.2859H3.16805L14.5252 10.771H0L3.16805 0.654591H43.6354L40.4674 10.771H26.7192L15.4218 45.2859Z" fill="black"/>
<path d="M61.0219 45.2859H31.9715L46.5565 0.654591H75.4874L72.7377 9.16429H55.9411L52.8926 18.7451H69.1513L66.4016 27.1358H50.0832L47.0347 36.7762H63.7118L61.0219 45.2859Z" fill="black"/>
<path d="M74.1704 45.2859H64.4272L79.072 0.654591H95.3307L94.7927 24.7555L110.633 0.654591H128.446L113.861 45.2859H101.667L111.35 15.2937H111.171L91.266 45.2859H84.0333L84.3321 14.9366H84.2126L74.1704 45.2859Z" fill="black"/>
<path d="M142.162 8.92626L137.44 23.3273H138.755C141.743 23.3273 144.234 22.633 146.226 21.2445C148.219 19.8163 149.514 17.793 150.112 15.1746C150.63 12.9133 150.351 11.3066 149.275 10.3545C148.199 9.40233 146.406 8.92626 143.895 8.92626H142.162ZM130.326 45.2859H118.073L132.658 0.654591H147.541C150.969 0.654591 153.917 1.21 156.388 2.32083C158.899 3.39198 160.732 4.9392 161.887 6.96248C163.083 8.9461 163.481 11.2669 163.083 13.925C162.565 17.4161 161.21 20.4907 159.018 23.1488C156.826 25.8068 153.977 27.8698 150.47 29.3376C147.003 30.7658 143.118 31.4799 138.814 31.4799H134.809L130.326 45.2859Z" fill="black"/>
<path d="M192.29 42.4295C188.225 44.8098 183.902 46 179.319 46H179.2C175.135 46 171.708 45.1074 168.918 43.3221C166.169 41.4972 164.196 39.0375 163.001 35.9431C161.845 32.8486 161.566 29.4567 162.164 25.7671C162.921 21.1255 164.654 16.8409 167.364 12.9133C170.074 8.98577 173.461 5.85166 177.526 3.511C181.591 1.17033 185.934 0 190.557 0H190.676C194.9 0 198.387 0.892626 201.137 2.67788C203.926 4.46313 205.859 6.90298 206.935 9.99741C208.051 13.0522 208.29 16.4838 207.652 20.2924C206.895 24.7753 205.162 29.0004 202.452 32.9677C199.742 36.8952 196.355 40.0492 192.29 42.4295ZM175.374 34.7529C176.45 36.7762 178.323 37.7878 180.993 37.7878H181.112C183.304 37.7878 185.336 36.9746 187.209 35.348C189.122 33.6818 190.736 31.4601 192.051 28.6831C193.406 25.906 194.402 22.8116 195.04 19.3997C195.638 16.0673 195.398 13.3894 194.322 11.3661C193.247 9.30315 191.394 8.27167 188.763 8.27167H188.644C186.612 8.27167 184.639 9.10479 182.726 10.771C180.853 12.4373 179.219 14.6787 177.825 17.4955C176.43 20.3122 175.414 23.367 174.776 26.6598C174.139 29.9922 174.338 32.69 175.374 34.7529Z" fill="black"/>
</svg>
